<svg xmlns="http://www.w3.org/2000/svg" viewBox="-133.9 -150.0 371.8 420.0" width="371.7691453623979" height="420">
  <g style="isolation: isolate;">
    <polygon points="0.00,-120.00 103.92,-60.00 103.92,60.00 0.00,120.00 -103.92,60.00 -103.92,-60.00" fill="#20E494" style="mix-blend-mode: multiply;" opacity="0.6"/>  <!-- Hex 1 -->
    <polygon points="103.92,-60.00 207.85,0.00 207.85,120.00 103.92,180.00 -0.00,120.00 0.00,-0.00" fill="#20BEE4" style="mix-blend-mode: multiply;" opacity="0.6"/>  <!-- Hex 2 -->
    <polygon points="0.00,0.00 103.92,60.00 103.92,180.00 0.00,240.00 -103.92,180.00 -103.92,60.00" fill="#20E4E4" style="mix-blend-mode: multiply;" opacity="0.6"/>  <!-- Hex 3 -->
  </g>

  <!-- Text as outlined paths — no font dependency -->
  <g>
    <path d="M112.32-123.12L112.32-34.02Q112.32-23.04 107.91-14.76Q103.50-6.48 92.16-1.89Q80.82 2.70 59.58 2.70L59.58 2.70Q38.70 2.70 27.36-1.89Q16.02-6.48 11.70-14.76Q7.38-23.04 7.38-34.02L7.38-34.02L7.38-63.18Q7.38-69.66 13.86-69.66L13.86-69.66L39.96-69.66Q46.44-69.66 46.44-63.18L46.44-63.18L46.44-41.22Q46.44-37.62 48.69-35.19Q50.94-32.76 59.22-32.76L59.22-32.76Q67.14-32.76 69.12-35.19Q71.10-37.62 71.10-41.22L71.10-41.22L71.10-123.12Q71.10-129.60 77.58-129.60L77.58-129.60L105.84-129.60Q112.32-129.60 112.32-123.12L112.32-123.12Z" transform="translate(-61.66,123.45)" fill="#333333"/>
    <path d="M52.02-47.16L52.02-47.16L24.12-47.16Q17.64-47.16 17.46-53.64L17.46-53.64L14.76-123.12Q14.58-129.60 20.88-129.60L20.88-129.60L55.26-129.60Q61.56-129.60 61.38-123.12L61.38-123.12L58.86-53.64Q58.68-47.16 52.02-47.16ZM54.72 0L54.72 0L21.60 0Q15.12 0 15.12-6.48L15.12-6.48L15.12-30.06Q15.12-36.54 21.60-36.54L21.60-36.54L54.72-36.54Q61.20-36.54 61.20-30.06L61.20-30.06L61.20-6.48Q61.20 0 54.72 0Z" transform="translate(62.18,123.45)" fill="#333333"/>
  </g>
</svg>